<svg xmlns="http://www.w3.org/2000/svg" xmlns:xlink="http://www.w3.org/1999/xlink" width="1920" zoomAndPan="magnify" viewBox="0 0 1440 809.999993" height="1080" preserveAspectRatio="xMidYMid meet" version="1.0"><path fill="#ffffff" d="M 672.691406 384 L 652.9375 403.757812 C 651.9375 404.757812 650.984375 405.804688 650.085938 406.898438 C 649.1875 407.992188 648.347656 409.125 647.558594 410.304688 C 646.773438 411.480469 646.046875 412.691406 645.378906 413.941406 C 644.710938 415.1875 644.105469 416.464844 643.5625 417.773438 C 643.019531 419.082031 642.542969 420.410156 642.132812 421.765625 C 641.722656 423.121094 641.378906 424.492188 641.101562 425.878906 C 640.824219 427.265625 640.617188 428.664062 640.476562 430.074219 C 640.339844 431.480469 640.269531 432.894531 640.269531 434.308594 C 640.269531 435.726562 640.335938 437.136719 640.476562 438.546875 C 640.613281 439.953125 640.820312 441.351562 641.097656 442.742188 C 641.375 444.128906 641.714844 445.5 642.128906 446.855469 C 642.539062 448.210938 643.015625 449.539062 643.554688 450.847656 C 644.097656 452.15625 644.699219 453.433594 645.367188 454.683594 C 646.035156 455.929688 646.761719 457.144531 647.546875 458.320312 C 648.335938 459.496094 649.175781 460.632812 650.074219 461.726562 C 650.972656 462.820312 651.921875 463.867188 652.921875 464.867188 C 653.921875 465.871094 654.96875 466.820312 656.066406 467.714844 C 657.160156 468.613281 658.292969 469.457031 659.472656 470.242188 C 660.648438 471.027344 661.859375 471.753906 663.109375 472.421875 C 664.355469 473.089844 665.636719 473.695312 666.941406 474.234375 C 668.25 474.777344 669.582031 475.253906 670.9375 475.664062 C 672.289062 476.074219 673.660156 476.417969 675.050781 476.695312 C 676.4375 476.96875 677.835938 477.175781 679.246094 477.316406 C 680.652344 477.453125 682.066406 477.523438 683.480469 477.523438 C 684.898438 477.523438 686.308594 477.453125 687.71875 477.3125 C 689.125 477.171875 690.523438 476.964844 691.910156 476.6875 C 693.300781 476.414062 694.671875 476.070312 696.023438 475.65625 C 697.378906 475.246094 698.710938 474.769531 700.019531 474.226562 C 701.324219 473.683594 702.601562 473.082031 703.851562 472.414062 C 705.097656 471.746094 706.3125 471.019531 707.488281 470.230469 C 708.664062 469.445312 709.800781 468.601562 710.894531 467.703125 C 711.988281 466.804688 713.035156 465.855469 714.035156 464.855469 L 740.355469 438.515625 C 740.964844 437.910156 741.554688 437.285156 742.125 436.640625 C 742.695312 435.996094 743.246094 435.335938 743.777344 434.660156 C 744.308594 433.984375 744.820312 433.292969 745.308594 432.585938 C 745.796875 431.878906 746.265625 431.160156 746.714844 430.425781 C 747.160156 429.691406 747.585938 428.941406 747.988281 428.183594 C 748.390625 427.421875 748.769531 426.652344 749.125 425.867188 C 749.480469 425.085938 749.8125 424.292969 750.121094 423.492188 C 750.433594 422.6875 750.714844 421.878906 750.976562 421.058594 C 751.238281 420.238281 751.472656 419.414062 751.683594 418.578125 C 751.894531 417.746094 752.082031 416.90625 752.242188 416.0625 C 752.402344 415.21875 752.539062 414.367188 752.648438 413.515625 C 752.757812 412.664062 752.84375 411.808594 752.902344 410.949219 C 752.964844 410.089844 752.996094 409.234375 753.003906 408.371094 C 753.011719 407.511719 752.996094 406.652344 752.953125 405.796875 C 752.90625 404.9375 752.839844 404.078125 752.746094 403.226562 C 752.648438 402.371094 752.53125 401.519531 752.382812 400.671875 C 752.238281 399.824219 752.070312 398.980469 751.875 398.144531 C 751.675781 397.308594 751.457031 396.476562 751.210938 395.652344 C 750.964844 394.828125 750.695312 394.011719 750.402344 393.203125 C 750.109375 392.394531 749.792969 391.597656 749.449219 390.808594 C 749.109375 390.019531 748.742188 389.242188 748.355469 388.472656 C 747.964844 387.707031 747.554688 386.953125 747.121094 386.207031 C 746.6875 385.464844 746.234375 384.738281 745.757812 384.019531 C 745.28125 383.304688 744.78125 382.605469 744.265625 381.917969 C 743.746094 381.234375 743.207031 380.5625 742.648438 379.910156 C 742.089844 379.253906 741.511719 378.621094 740.914062 378 C 740.320312 377.382812 739.703125 376.78125 739.070312 376.199219 C 738.441406 375.613281 737.789062 375.050781 737.125 374.507812 C 736.457031 373.964844 735.777344 373.441406 735.078125 372.9375 C 734.382812 372.433594 733.667969 371.953125 732.945312 371.492188 C 732.21875 371.03125 731.476562 370.59375 730.726562 370.175781 C 729.972656 369.761719 729.210938 369.367188 728.433594 368.996094 L 719.996094 377.433594 C 719.136719 378.296875 718.394531 379.25 717.777344 380.300781 C 718.375 380.472656 718.96875 380.664062 719.554688 380.875 C 720.140625 381.085938 720.722656 381.316406 721.292969 381.5625 C 721.863281 381.8125 722.429688 382.078125 722.980469 382.363281 C 723.535156 382.648438 724.082031 382.949219 724.617188 383.269531 C 725.148438 383.589844 725.675781 383.925781 726.1875 384.28125 C 726.699219 384.636719 727.199219 385.007812 727.6875 385.394531 C 728.179688 385.78125 728.652344 386.179688 729.117188 386.597656 C 729.578125 387.015625 730.027344 387.449219 730.460938 387.894531 C 730.898438 388.34375 731.316406 388.800781 731.722656 389.277344 C 732.125 389.75 732.515625 390.238281 732.886719 390.734375 C 733.261719 391.234375 733.617188 391.746094 733.957031 392.269531 C 734.296875 392.789062 734.621094 393.324219 734.925781 393.867188 C 735.230469 394.410156 735.519531 394.960938 735.789062 395.523438 C 736.058594 396.085938 736.308594 396.65625 736.539062 397.234375 C 736.773438 397.8125 736.988281 398.398438 737.179688 398.988281 C 737.375 399.582031 737.550781 400.179688 737.707031 400.785156 C 737.863281 401.386719 738 401.996094 738.113281 402.605469 C 738.230469 403.21875 738.328125 403.835938 738.402344 404.453125 C 738.480469 405.070312 738.535156 405.691406 738.570312 406.3125 C 738.609375 406.9375 738.625 407.558594 738.617188 408.183594 C 738.613281 408.804688 738.589844 409.425781 738.546875 410.050781 C 738.5 410.671875 738.433594 411.289062 738.351562 411.90625 C 738.265625 412.523438 738.160156 413.140625 738.035156 413.75 C 737.910156 414.359375 737.765625 414.964844 737.601562 415.566406 C 737.4375 416.167969 737.253906 416.761719 737.050781 417.351562 C 736.847656 417.941406 736.625 418.523438 736.386719 419.097656 C 736.144531 419.675781 735.886719 420.242188 735.609375 420.796875 C 735.332031 421.355469 735.035156 421.90625 734.722656 422.445312 C 734.410156 422.984375 734.078125 423.511719 733.734375 424.027344 C 733.386719 424.546875 733.023438 425.050781 732.640625 425.546875 C 732.261719 426.039062 731.867188 426.519531 731.453125 426.988281 C 731.042969 427.457031 730.617188 427.910156 730.175781 428.351562 L 703.867188 454.671875 C 703.199219 455.339844 702.503906 455.972656 701.773438 456.574219 C 701.042969 457.171875 700.285156 457.734375 699.5 458.257812 C 698.714844 458.78125 697.910156 459.265625 697.074219 459.710938 C 696.242188 460.15625 695.390625 460.558594 694.519531 460.917969 C 693.648438 461.28125 692.761719 461.597656 691.855469 461.871094 C 690.953125 462.144531 690.039062 462.375 689.113281 462.558594 C 688.1875 462.742188 687.257812 462.882812 686.316406 462.972656 C 685.378906 463.066406 684.4375 463.113281 683.492188 463.113281 C 682.550781 463.113281 681.609375 463.066406 680.667969 462.972656 C 679.730469 462.882812 678.796875 462.742188 677.871094 462.558594 C 676.945312 462.375 676.03125 462.144531 675.128906 461.871094 C 674.226562 461.597656 673.335938 461.28125 672.464844 460.917969 C 671.59375 460.558594 670.742188 460.15625 669.910156 459.710938 C 669.078125 459.265625 668.269531 458.78125 667.484375 458.257812 C 666.699219 457.734375 665.941406 457.171875 665.210938 456.574219 C 664.484375 455.972656 663.785156 455.339844 663.117188 454.671875 C 662.449219 454.007812 661.816406 453.308594 661.21875 452.578125 C 660.621094 451.847656 660.058594 451.089844 659.535156 450.308594 C 659.011719 449.523438 658.523438 448.714844 658.082031 447.882812 C 657.636719 447.050781 657.234375 446.195312 656.871094 445.324219 C 656.511719 444.453125 656.191406 443.566406 655.917969 442.664062 C 655.644531 441.757812 655.414062 440.84375 655.230469 439.917969 C 655.046875 438.992188 654.910156 438.0625 654.816406 437.121094 C 654.722656 436.183594 654.679688 435.242188 654.679688 434.296875 C 654.679688 433.355469 654.722656 432.414062 654.816406 431.472656 C 654.910156 430.535156 655.046875 429.601562 655.230469 428.675781 C 655.414062 427.75 655.644531 426.835938 655.917969 425.933594 C 656.191406 425.03125 656.511719 424.144531 656.871094 423.269531 C 657.234375 422.398438 657.636719 421.546875 658.082031 420.714844 C 658.523438 419.882812 659.011719 419.074219 659.535156 418.289062 C 660.058594 417.503906 660.621094 416.746094 661.21875 416.019531 C 661.816406 415.289062 662.449219 414.589844 663.117188 413.921875 L 674.535156 402.519531 C 672.910156 396.441406 672.296875 390.265625 672.691406 383.988281 Z M 672.691406 384 " fill-opacity="1" fill-rule="nonzero"/><path fill="#ffffff" d="M 699.632812 357.074219 C 699.027344 357.683594 698.4375 358.308594 697.867188 358.949219 C 697.296875 359.59375 696.746094 360.253906 696.214844 360.929688 C 695.683594 361.605469 695.171875 362.296875 694.683594 363.003906 C 694.191406 363.710938 693.722656 364.433594 693.277344 365.167969 C 692.828125 365.902344 692.40625 366.648438 692.003906 367.40625 C 691.601562 368.167969 691.222656 368.941406 690.867188 369.722656 C 690.507812 370.503906 690.175781 371.296875 689.867188 372.101562 C 689.558594 372.902344 689.273438 373.714844 689.011719 374.53125 C 688.753906 375.351562 688.515625 376.179688 688.304688 377.011719 C 688.09375 377.847656 687.910156 378.683594 687.75 379.53125 C 687.585938 380.375 687.453125 381.222656 687.339844 382.074219 C 687.230469 382.929688 687.144531 383.785156 687.085938 384.640625 C 687.027344 385.5 686.992188 386.359375 686.984375 387.21875 C 686.976562 388.078125 686.996094 388.9375 687.039062 389.796875 C 687.082031 390.65625 687.152344 391.511719 687.246094 392.367188 C 687.339844 393.222656 687.460938 394.070312 687.605469 394.917969 C 687.75 395.765625 687.921875 396.609375 688.117188 397.445312 C 688.3125 398.285156 688.535156 399.113281 688.777344 399.9375 C 689.023438 400.761719 689.292969 401.578125 689.585938 402.386719 C 689.882812 403.195312 690.199219 403.992188 690.542969 404.78125 C 690.882812 405.570312 691.246094 406.351562 691.636719 407.117188 C 692.023438 407.886719 692.433594 408.640625 692.867188 409.382812 C 693.300781 410.125 693.757812 410.855469 694.234375 411.570312 C 694.710938 412.285156 695.207031 412.988281 695.726562 413.671875 C 696.246094 414.359375 696.785156 415.027344 697.34375 415.683594 C 697.902344 416.335938 698.476562 416.972656 699.074219 417.589844 C 699.671875 418.210938 700.285156 418.8125 700.917969 419.394531 C 701.550781 419.976562 702.199219 420.539062 702.867188 421.082031 C 703.53125 421.625 704.214844 422.148438 704.910156 422.652344 C 705.609375 423.15625 706.320312 423.636719 707.046875 424.097656 C 707.773438 424.558594 708.511719 424.996094 709.265625 425.414062 C 710.015625 425.832031 710.78125 426.222656 711.558594 426.59375 L 722.714844 415.421875 C 722.109375 415.257812 721.507812 415.074219 720.914062 414.871094 C 720.320312 414.671875 719.730469 414.449219 719.148438 414.207031 C 718.570312 413.96875 717.996094 413.707031 717.433594 413.429688 C 716.871094 413.152344 716.316406 412.855469 715.773438 412.542969 C 715.226562 412.226562 714.695312 411.894531 714.171875 411.546875 C 713.648438 411.199219 713.140625 410.832031 712.640625 410.449219 C 712.140625 410.066406 711.65625 409.667969 711.183594 409.253906 C 710.710938 408.839844 710.253906 408.410156 709.808594 407.964844 C 709.367188 407.519531 708.9375 407.0625 708.523438 406.589844 C 708.109375 406.117188 707.710938 405.628906 707.328125 405.132812 C 706.945312 404.632812 706.578125 404.121094 706.230469 403.601562 C 705.878906 403.078125 705.546875 402.542969 705.234375 402 C 704.921875 401.457031 704.625 400.902344 704.347656 400.335938 C 704.070312 399.773438 703.808594 399.203125 703.570312 398.621094 C 703.328125 398.039062 703.109375 397.453125 702.90625 396.859375 C 702.703125 396.261719 702.523438 395.660156 702.359375 395.054688 C 702.195312 394.445312 702.054688 393.835938 701.929688 393.21875 C 701.808594 392.601562 701.707031 391.984375 701.625 391.359375 C 701.542969 390.738281 701.480469 390.113281 701.441406 389.484375 C 701.398438 388.859375 701.378906 388.230469 701.378906 387.601562 C 701.378906 386.972656 701.398438 386.34375 701.441406 385.71875 C 701.480469 385.089844 701.542969 384.464844 701.625 383.84375 C 701.707031 383.21875 701.808594 382.601562 701.933594 381.984375 C 702.054688 381.367188 702.199219 380.753906 702.359375 380.148438 C 702.523438 379.542969 702.707031 378.941406 702.90625 378.34375 C 703.109375 377.75 703.332031 377.164062 703.570312 376.582031 C 703.8125 376 704.070312 375.429688 704.351562 374.867188 C 704.628906 374.300781 704.925781 373.746094 705.238281 373.203125 C 705.550781 372.660156 705.882812 372.125 706.234375 371.601562 C 706.582031 371.082031 706.949219 370.570312 707.332031 370.070312 C 707.714844 369.574219 708.113281 369.085938 708.527344 368.617188 C 708.941406 368.144531 709.371094 367.683594 709.816406 367.238281 L 736.121094 340.917969 C 736.789062 340.25 737.488281 339.617188 738.21875 339.015625 C 738.945312 338.417969 739.703125 337.855469 740.488281 337.332031 C 741.273438 336.804688 742.082031 336.320312 742.914062 335.875 C 743.746094 335.429688 744.597656 335.027344 745.472656 334.664062 C 746.34375 334.304688 747.230469 333.984375 748.132812 333.710938 C 749.039062 333.4375 749.953125 333.207031 750.878906 333.023438 C 751.804688 332.835938 752.738281 332.699219 753.675781 332.605469 C 754.617188 332.511719 755.558594 332.464844 756.5 332.464844 C 757.445312 332.464844 758.386719 332.511719 759.328125 332.605469 C 760.265625 332.695312 761.199219 332.835938 762.125 333.019531 C 763.050781 333.203125 763.964844 333.429688 764.871094 333.707031 C 765.773438 333.980469 766.660156 334.296875 767.53125 334.65625 C 768.40625 335.019531 769.257812 335.421875 770.089844 335.867188 C 770.921875 336.3125 771.730469 336.796875 772.515625 337.320312 C 773.300781 337.84375 774.058594 338.40625 774.789062 339.007812 C 775.519531 339.605469 776.21875 340.238281 776.886719 340.90625 C 777.550781 341.574219 778.1875 342.273438 778.785156 343 C 779.382812 343.730469 779.945312 344.488281 780.46875 345.273438 C 780.996094 346.058594 781.480469 346.867188 781.925781 347.699219 C 782.367188 348.53125 782.773438 349.386719 783.132812 350.257812 C 783.496094 351.128906 783.8125 352.019531 784.085938 352.921875 C 784.359375 353.824219 784.589844 354.738281 784.773438 355.664062 C 784.957031 356.589844 785.09375 357.523438 785.1875 358.464844 C 785.277344 359.402344 785.324219 360.34375 785.324219 361.289062 C 785.324219 362.234375 785.277344 363.175781 785.183594 364.113281 C 785.09375 365.054688 784.953125 365.988281 784.769531 366.914062 C 784.585938 367.839844 784.355469 368.753906 784.082031 369.65625 C 783.804688 370.558594 783.488281 371.449219 783.125 372.320312 C 782.765625 373.191406 782.359375 374.042969 781.914062 374.875 C 781.46875 375.707031 780.984375 376.515625 780.460938 377.300781 C 779.933594 378.085938 779.375 378.84375 778.773438 379.574219 C 778.175781 380.304688 777.539062 381 776.871094 381.667969 L 765.453125 393.074219 C 767.066406 399.121094 767.6875 405.382812 767.296875 411.605469 L 787.054688 391.847656 C 788.054688 390.847656 789.003906 389.800781 789.902344 388.707031 C 790.796875 387.613281 791.640625 386.476562 792.425781 385.300781 C 793.210938 384.125 793.9375 382.914062 794.605469 381.664062 C 795.273438 380.417969 795.875 379.140625 796.417969 377.832031 C 796.960938 376.527344 797.4375 375.195312 797.847656 373.839844 C 798.257812 372.488281 798.601562 371.117188 798.875 369.730469 C 799.152344 368.339844 799.359375 366.941406 799.5 365.535156 C 799.636719 364.125 799.707031 362.714844 799.707031 361.300781 C 799.707031 359.886719 799.636719 358.472656 799.5 357.066406 C 799.359375 355.65625 799.152344 354.257812 798.875 352.871094 C 798.601562 351.484375 798.257812 350.113281 797.847656 348.757812 C 797.4375 347.40625 796.960938 346.074219 796.417969 344.769531 C 795.875 343.460938 795.273438 342.183594 794.605469 340.933594 C 793.9375 339.6875 793.210938 338.476562 792.425781 337.296875 C 791.640625 336.121094 790.796875 334.988281 789.902344 333.894531 C 789.003906 332.800781 788.054688 331.753906 787.054688 330.75 C 786.054688 329.75 785.003906 328.800781 783.910156 327.90625 C 782.816406 327.007812 781.683594 326.164062 780.507812 325.378906 C 779.332031 324.59375 778.117188 323.867188 776.871094 323.199219 C 775.621094 322.53125 774.34375 321.929688 773.039062 321.386719 C 771.730469 320.84375 770.398438 320.371094 769.046875 319.957031 C 767.691406 319.546875 766.320312 319.203125 764.933594 318.929688 C 763.546875 318.652344 762.148438 318.445312 760.738281 318.304688 C 759.332031 318.167969 757.917969 318.097656 756.503906 318.097656 C 755.089844 318.097656 753.679688 318.167969 752.269531 318.304688 C 750.863281 318.445312 749.464844 318.652344 748.078125 318.929688 C 746.6875 319.203125 745.316406 319.546875 743.964844 319.957031 C 742.609375 320.371094 741.28125 320.84375 739.972656 321.386719 C 738.664062 321.929688 737.386719 322.53125 736.140625 323.199219 C 734.890625 323.867188 733.679688 324.59375 732.503906 325.378906 C 731.328125 326.164062 730.191406 327.007812 729.097656 327.90625 C 728.003906 328.800781 726.957031 329.75 725.957031 330.75 Z M 699.632812 357.074219 " fill-opacity="1" fill-rule="nonzero"/></svg>